<?xml version="1.0" encoding="UTF-8" standalone="no"?>
<!-- Created with Inkscape (http://www.inkscape.org/) -->

<svg
   width="210mm"
   height="297mm"
   viewBox="0 0 210 297"
   version="1.1"
   id="svg5"
   inkscape:version="1.2.1 (9c6d41e4, 2022-07-14)"
   sodipodi:docname="logo-m.svg"
   xmlns:inkscape="http://www.inkscape.org/namespaces/inkscape"
   xmlns:sodipodi="http://sodipodi.sourceforge.net/DTD/sodipodi-0.dtd"
   xmlns="http://www.w3.org/2000/svg"
   xmlns:svg="http://www.w3.org/2000/svg">
  <sodipodi:namedview
     id="namedview7"
     pagecolor="#ffffff"
     bordercolor="#000000"
     borderopacity="0.25"
     inkscape:showpageshadow="2"
     inkscape:pageopacity="0.0"
     inkscape:pagecheckerboard="0"
     inkscape:deskcolor="#d1d1d1"
     inkscape:document-units="mm"
     showgrid="false"
     inkscape:zoom="0.35464532"
     inkscape:cx="172.00284"
     inkscape:cy="439.8761"
     inkscape:window-width="1309"
     inkscape:window-height="430"
     inkscape:window-x="0"
     inkscape:window-y="25"
     inkscape:window-maximized="0"
     inkscape:current-layer="layer1" />
  <defs
     id="defs2" />
  <g
     inkscape:label="Layer 1"
     inkscape:groupmode="layer"
     id="layer1"
     style="display:inline">
    <path
       style="fill:#445016;stroke:#000000;stroke-width:0.2;stroke-miterlimit:3.5"
       id="path474"
       d="m 36.50757,108.87928 c 6.233102,-5.17583 11.794636,-11.087347 17.364411,-16.952337 2.566921,-2.441366 4.843849,-5.219419 7.554648,-7.513719 0.509582,-0.431289 1.015415,-0.894697 1.62029,-1.177208 0.391972,-0.183076 1.582679,0.134337 1.285327,-0.179893 -0.585809,-0.619056 -1.57871,-0.642866 -2.368066,-0.964298 0.271513,0.684345 0.662747,1.332614 0.814536,2.053037 1.441987,6.84402 -2.041737,16.618338 -4.224959,23.014588 -2.101475,6.20085 -4.894019,12.13139 -7.236767,18.23801 -0.550744,1.08193 -0.962504,2.25667 -1.581949,3.30403 -0.457743,1.23952 -1.057519,2.42108 -1.640875,3.60654 -1.088577,0.90177 -1.669594,1.29425 3.37805,1.69965 0.438666,0.0352 0.315103,-0.82193 0.483055,-1.2287 1.38998,-3.36646 2.896163,-6.67663 4.414006,-9.9869 4.268042,-9.4319 9.046893,-18.62146 14.383398,-27.491273 0.77071,-1.061778 3.656764,-6.448118 5.303724,-6.459911 0.209158,-0.0016 0.384945,0.163751 0.577419,0.245626 -0.942753,-0.442418 -1.787229,-1.299522 -2.828264,-1.327256 -0.450305,-0.01198 0.366768,0.827707 0.476483,1.264606 0.168217,0.669864 0.291462,1.353719 0.353769,2.041567 0.309134,3.412791 -0.339661,6.688132 -0.921387,10.032711 -1.577634,6.81796 -3.929015,13.43396 -6.272004,20.02063 -0.628965,1.33149 -2.567577,4.57414 3.666043,1.36257 1.070041,-0.55128 1.023967,-2.17928 1.572083,-3.25095 0.782119,-1.52919 1.579401,-3.05126 2.417921,-4.55027 2.410436,-4.3091 3.977828,-6.7521 6.575422,-10.96821 4.084503,-6.311996 8.149307,-12.680851 13.080598,-18.376367 -1.147308,-1.817973 1.484484,-0.208235 1.113401,-0.312626 -1.028076,-0.289216 -2.034485,-1.396854 -3.035602,-1.024893 -0.685374,0.254651 0.01101,1.468837 -0.103028,2.191044 -0.482053,3.052681 -1.372601,5.569426 -2.272427,8.546187 -1.536285,4.96479 -3.246123,9.874425 -4.722657,14.857975 -0.680532,2.29691 -1.608545,5.32623 -1.843878,7.77466 -0.09307,0.96832 0.024,1.94542 0.03599,2.91813 0.273719,0.75652 0.404519,1.58134 0.821155,2.26957 1.402303,2.31643 5.162037,3.7757 7.271846,4.20844 1.463098,0.30009 5.499084,-1.5833 6.64269,-2.04962 0,0 -2.985307,-2.00108 -2.985307,-2.00108 v 0 c -1.115,0.43074 -2.191481,0.97892 -3.345,1.29223 -1.05904,0.28764 -2.335605,-0.10058 -3.254021,0.5001 -0.38041,0.2488 1.122471,1.34001 0.701061,1.16964 -1.605314,-0.64904 -1.995149,-2.37126 -2.574819,-3.73182 -0.047,-0.96348 -0.204531,-1.92791 -0.140994,-2.89045 0.166487,-2.52219 1.019808,-5.42485 1.695297,-7.80462 1.41923,-4.99998 3.103779,-9.91774 4.720018,-14.85572 0.809146,-2.470092 2.002015,-5.85828 2.576216,-8.472763 0.162619,-0.740441 0.688351,-1.614548 0.28488,-2.256351 -0.836406,-1.330478 -2.330995,-2.119209 -3.609816,-3.032643 -0.150339,-0.107381 -0.392123,-0.03371 -0.550913,0.06072 -0.27926,0.166085 -0.464651,0.454293 -0.696976,0.681437 -4.64198,5.929363 -8.575545,12.363736 -12.635645,18.69482 -3.156159,5.09295 -6.330093,10.16659 -9.286137,15.37946 -0.592071,1.04409 -1.881349,1.95586 -1.747094,3.14861 0.159782,1.41951 1.377728,2.5935 2.493791,3.4851 0.318987,0.25483 0.290562,-0.76312 0.435842,-1.14467 2.095032,-6.70382 4.416661,-13.34689 6.111156,-20.1667 0.639879,-3.341605 1.33732,-6.619758 1.16319,-10.044234 -0.03517,-0.691637 -0.137099,-1.379633 -0.258326,-2.061472 -0.08325,-0.468246 -0.0056,-1.058325 -0.353925,-1.382175 -1.139489,-1.059519 -2.597759,-1.713394 -3.896638,-2.570088 -0.237098,-0.01125 -0.480843,-0.09064 -0.711295,-0.03376 -1.980266,0.488736 -4.099954,5.406422 -5.138769,6.833701 -5.113946,9.004198 -9.825546,18.236758 -14.305391,27.571028 -4.010221,8.19387 -0.31944,0.61526 -3.655404,7.55595 -0.361686,0.75252 -0.730716,1.50149 -1.096066,2.25223 -0.198278,0.40743 -0.865952,0.85927 -0.594812,1.22232 2.602944,3.48523 2.531882,3.39187 3.511023,2.13376 0.54129,-1.19272 1.158592,-2.34563 1.647693,-3.56015 0.634066,-1.0684 0.954154,-2.32343 1.494959,-3.43718 2.117855,-6.21426 4.758259,-12.23699 6.838529,-18.46568 2.278756,-6.66626 5.710902,-15.886249 4.673452,-23.048798 -0.109265,-0.754356 -0.425365,-1.46391 -0.638048,-2.195864 -1.454152,-0.893906 -2.782123,-2.036601 -4.362455,-2.681719 -0.835594,-0.341103 -2.623741,1.383623 -2.886898,1.623941 -2.612583,2.385822 -4.824235,5.187135 -7.355432,7.652771 -5.561328,5.882558 -11.121795,11.891029 -17.72893,16.627149 0,0 3.307606,2.11783 3.307606,2.11783 z" />
  </g>
</svg>
